PathFileType	4	(X/Y/Z)	C:\Users\Basilio\Documents\Thesis Gigler\squatting_fais\c3dfiles\047\SLS_pre_front5\markers_experimental.trc
DataRate	CameraRate	NumFrames	NumMarkers	Units	OrigDataRate	OrigDataStartFrame	OrigNumFrames
200.000000	200.000000	4	60	mm	200.000000	295	1183
Frame#	Time	FHD			LBHD			RBHD			C7			T10			CLAV			LSHO			LUUPA			LMUPA			LDUPA			LLEP			LMEP			LRAD			LUL			LRFIN			RSHO			RUPA1			RMUPA			RDUPA			RLEP			RMEP			RRAD			RUL			RUFIN			LASI			RASI			USACR			LSACR			RSACR			LTHI1			LTHI2			LTHI3			LTHI4			LLFC			LMFC			LTIB1			LTIB2			LTIB3			LTIB4			LLMAL			LMMAL			LMT1			LMT2			LMT5			RTHI			RTHI2			RTHI3			RTHI4			RLFC			RMFC			RTIB1			RTIB2			RTIB3			RTIB4			RLMAL			RMMAL			RHEE			RMT1			RMT2			RMT5			
		X1	Y1	Z1	X2	Y2	Z2	X3	Y3	Z3	X4	Y4	Z4	X5	Y5	Z5	X6	Y6	Z6	X7	Y7	Z7	X8	Y8	Z8	X9	Y9	Z9	X10	Y10	Z10	X11	Y11	Z11	X12	Y12	Z12	X13	Y13	Z13	X14	Y14	Z14	X15	Y15	Z15	X16	Y16	Z16	X17	Y17	Z17	X18	Y18	Z18	X19	Y19	Z19	X20	Y20	Z20	X21	Y21	Z21	X22	Y22	Z22	X23	Y23	Z23	X24	Y24	Z24	X25	Y25	Z25	X26	Y26	Z26	X27	Y27	Z27	X28	Y28	Z28	X29	Y29	Z29	X30	Y30	Z30	X31	Y31	Z31	X32	Y32	Z32	X33	Y33	Z33	X34	Y34	Z34	X35	Y35	Z35	X36	Y36	Z36	X37	Y37	Z37	X38	Y38	Z38	X39	Y39	Z39	X40	Y40	Z40	X41	Y41	Z41	X42	Y42	Z42	X43	Y43	Z43	X44	Y44	Z44	X45	Y45	Z45	X46	Y46	Z46	X47	Y47	Z47	X48	Y48	Z48	X49	Y49	Z49	X50	Y50	Z50	X51	Y51	Z51	X52	Y52	Z52	X53	Y53	Z53	X54	Y54	Z54	X55	Y55	Z55	X56	Y56	Z56	X57	Y57	Z57	X58	Y58	Z58	X59	Y59	Z59	X60	Y60	Z60	

296	1.475	-215.6782226562501	1700.045043945313	-1066.5888671875	-392.9555969238282	1665.893310546875	-1100.384887695313	-375.6331787109376	1667.734985351563	-953.0045166015627	-424.7277832031251	1483.84228515625	-1029.101318359375	-440.2955322265626	1174.8955078125	-1006.693542480469	-273.1390686035157	1434.212646484375	-1053.03369140625	-356.8169555664063	1467.348388671875	-1195.566162109375	-271.6651306152344	1406.944946289063	-1333.506469726563	-248.2457885742188	1450.472534179688	-1329.060424804688	-211.166000366211	1420.621215820313	-1364.599487304688	-154.4459228515625	1446.22412109375	-1388.391845703125	-116.7813491821289	1389.112426757813	-1346.580444335938	113.9137191772461	1479.607177734375	-1409.807861328125	86.74215698242189	1494.766967773438	-1481.533569335938	184.4455871582032	1516.105712890625	-1441.295532226563	-317.2546691894532	1482.266235351563	-904.6596679687502	-186.2493591308594	1432.032348632813	-790.1322021484377	-161.1962585449219	1468.46142578125	-812.453063964844	-116.7747039794922	1436.524780273438	-786.4233398437502	-50.46015548706056	1455.949829101563	-792.6186523437502	-34.61076736450196	1388.031372070313	-835.9370117187502	214.0469207763672	1471.231323242188	-848.884704589844	204.0379486083985	1491.584716796875	-777.398864746094	291.5086669921876	1498.991577148438	-837.206481933594	-275.4860534667969	949.253601074219	-1098.808715820313	-261.5619812011719	980.967956542969	-872.5915527343752	-453.4844055175782	1036.026000976563	-986.3449707031252	-460.4606933593751	1002.543823242188	-1011.161376953125	-455.7567749023439	1008.035705566406	-953.4444580078127	-324.5783996582032	787.284851074219	-1165.527099609375	-266.0255126953126	726.9420776367189	-1169.634643554688	-220.940658569336	745.1401977539064	-1162.104858398438	-274.1953125000001	666.3890380859376	-1166.701538085938	-238.4023742675782	502.093231201172	-1130.095092773438	-194.0729370117188	502.2088317871095	-1012.546447753906	-226.3496246337891	325.9915466308594	-1023.393493652344	-246.9522094726563	276.4020690917969	-1092.540649414063	-229.5298156738282	273.3067016601563	-1047.535766601563	-260.7329406738282	205.5198364257813	-1012.495056152344	-330.4495544433594	117.4488983154297	-1051.462646484375	-305.2684631347657	138.0888214111328	-966.213073730469	-191.7014770507813	63.22022628784181	-978.5301513671877	-189.2555389404297	59.39258193969728	-1023.489379882813	-237.1854858398438	44.00728988647462	-1068.883178710938	-256.3306884765626	816.3621215820315	-770.814880371094	-192.0070190429688	800.1724243164065	-780.713073730469	-170.8031768798828	820.8404541015627	-794.2469482421877	-160.4357604980469	723.0600585937501	-784.445007324219	-61.63973617553712	616.1611328125001	-810.674011230469	-56.451473236084	611.2019653320314	-934.4820556640627	35.03902435302735	527.1034545898439	-838.4691162109377	35.55392074584962	429.3102416992189	-786.5649414062502	68.17233276367189	450.2136230468751	-812.5140380859377	95.35902404785158	412.1606445312501	-847.5969848632815	128.1784820556641	257.0431518554688	-806.5129394531252	128.0201721191407	270.2488403320313	-897.5721435546877	83.33676147460939	196.6259918212891	-844.8689575195315	277.5727539062501	257.9849548339844	-906.644958496094	284.5272216796876	270.8045654296876	-863.4707641601565	262.0520019531251	237.3687744140626	-797.704528808594	
297	1.48	-214.8705444335938	1698.972900390625	-1066.938842773438	-392.4235229492189	1664.790283203125	-1100.659301757813	-374.6786804199219	1666.734252929688	-953.346374511719	-423.9615173339845	1482.993530273438	-1029.215698242188	-439.7304992675782	1174.649658203125	-1006.483276367188	-272.7439880371094	1432.587036132813	-1053.160766601563	-356.4476013183594	1466.137817382813	-1195.688842773438	-271.2522583007813	1405.677734375	-1333.660278320313	-247.8640899658204	1449.284057617188	-1329.130249023438	-210.8228302001954	1419.437866210938	-1364.721313476563	-154.4064636230469	1444.8515625	-1388.480346679688	-116.3036193847657	1387.297729492188	-1346.781005859375	113.4697265625	1478.009521484375	-1409.991943359375	86.93688964843751	1493.276489257813	-1481.584594726563	184.1024169921875	1514.052368164063	-1441.340087890625	-316.2304382324219	1480.94921875	-905.3157958984377	-185.543701171875	1431.174438476563	-790.4121704101565	-160.1896209716797	1467.626098632813	-812.9619140625002	-116.1954498291016	1435.581298828125	-786.7283325195315	-49.95482635498048	1454.619750976563	-793.1375732421877	-33.98375701904298	1387.090454101563	-836.474060058594	214.4366912841797	1470.533447265625	-849.581237792969	204.8045959472657	1490.280639648438	-778.2344970703127	291.8507690429688	1497.578857421875	-837.7540283203127	-275.0767211914063	948.0701904296877	-1098.551635742188	-262.1933288574219	979.9490356445315	-872.357360839844	-454.2715148925782	1035.149047851563	-986.0239257812502	-461.3051757812501	1001.649108886719	-1010.963012695313	-456.3071899414064	1007.227416992188	-953.2271118164065	-324.7483215332032	786.2083129882815	-1165.306884765625	-265.9849243164063	726.1409912109376	-1169.276611328125	-221.0984497070313	744.6818847656251	-1161.6787109375	-273.7452392578126	665.5169067382814	-1166.4072265625	-237.1484985351563	501.7330627441407	-1129.869750976563	-192.9756927490235	501.8515930175782	-1012.261413574219	-225.6550903320313	325.7460937500001	-1022.8193359375	-246.834945678711	275.8551940917969	-1092.499633789063	-228.7669067382813	273.3460388183594	-1047.33056640625	-260.0349121093751	205.4755249023438	-1012.447814941406	-330.3609619140626	117.5205841064453	-1051.321166992188	-305.2678833007813	137.9551239013672	-965.931335449219	-191.6412048339844	63.07602310180665	-978.435485839844	-189.3306274414063	59.38272094726564	-1023.3056640625	-237.1952819824219	44.10313034057618	-1068.783569335938	-257.2608947753907	815.5440063476565	-770.792175292969	-192.5677947998047	799.5344238281252	-780.5618286132815	-171.4935607910157	820.1110839843752	-794.0120239257815	-160.6951446533203	722.3013916015626	-784.5321044921877	-61.96631622314455	615.4737548828126	-810.740173339844	-59.32678604125978	609.8320922851564	-933.4285278320315	34.70127105712891	526.7504882812501	-838.1484985351565	35.47036361694337	428.9997863769532	-786.4667968750002	68.00028228759767	449.7690429687501	-812.4572753906252	95.3543167114258	411.6709289550782	-847.641784667969	128.509765625	256.7178039550782	-806.6233520507815	127.9219970703125	269.9175720214844	-897.4237060546877	83.67765045166017	196.256820678711	-844.6616821289065	277.5428466796876	257.8048706054688	-906.6146240234377	284.5776062011719	270.6019592285157	-863.434020996094	262.2315063476563	237.3501129150391	-797.786804199219	
298	1.485	-213.8471221923829	1697.670532226563	-1067.37255859375	-391.4461059570314	1663.489868164063	-1100.934936523438	-374.1556091308594	1665.5712890625	-953.3337402343752	-423.5204467773439	1481.789672851563	-1029.207641601563	-441.0235595703126	1173.14111328125	-1006.402404785156	-272.1875915527344	1431.242431640625	-1053.437744140625	-356.1118164062501	1465.028076171875	-1195.70751953125	-271.0953063964844	1404.466186523438	-1333.766479492188	-247.5138397216797	1448.00390625	-1329.265625	-210.0003662109376	1417.728393554688	-1364.92236328125	-154.1212005615235	1443.676879882813	-1388.529541015625	-115.9173278808594	1386.724365234375	-1347.02587890625	113.8024368286133	1476.3095703125	-1409.998291015625	87.59264373779298	1491.586059570313	-1481.808959960938	185.0728759765625	1512.642211914063	-1441.849243164063	-315.7886657714844	1480.045288085938	-905.4282836914065	-185.0808410644532	1429.84375	-790.5698242187502	-159.8333282470703	1466.364990234375	-813.1164550781252	-115.7241287231446	1434.463012695313	-787.131530761719	-49.0309410095215	1453.831787109375	-793.7243652343752	-33.32009887695313	1385.884765625	-836.7227783203127	215.2963104248047	1468.778564453125	-850.6417236328127	205.6138305664063	1489.216552734375	-779.1712036132815	292.7444152832032	1496.494262695313	-839.1128540039065	-277.4234008789063	946.7505493164065	-1097.884033203125	-263.3507690429688	978.8027954101565	-871.512145996094	-454.9703369140626	1034.205688476563	-985.7955322265627	-458.921844482422	999.9300537109377	-1011.182006835938	-456.9486389160157	1006.174011230469	-952.9566040039065	-324.9285278320313	785.1203613281252	-1164.99951171875	-265.7427368164063	725.4090576171876	-1169.028076171875	-221.1978759765626	744.2341918945314	-1161.234375	-273.4473571777344	664.5345458984376	-1166.34619140625	-235.7173156738282	501.1778564453126	-1129.71923828125	-191.5960540771485	501.4640502929689	-1012.125671386719	-225.2142944335938	325.5558166503907	-1022.235290527344	-245.8431243896485	275.5465698242188	-1092.2607421875	-227.9619598388672	272.8359375000001	-1046.918090820313	-259.5751647949219	205.2423248291016	-1012.117431640625	-330.1731567382813	117.6319274902344	-1051.109985351563	-305.2813720703126	137.8953399658203	-965.6007080078127	-191.4000701904297	62.99399948120119	-978.434509277344	-189.2958984375	59.34610748291017	-1023.148681640625	-237.1483154296876	44.21103668212891	-1068.68603515625	-257.8322143554688	814.6239013671877	-770.1971435546877	-193.2654113769532	798.4165039062502	-780.3304443359377	-172.1450653076172	819.0970458984377	-794.0375976562502	-161.1983337402344	721.3859863281251	-784.2383422851565	-62.44154357910158	614.8301391601564	-810.4993286132815	-57.99661254882814	609.3657226562501	-933.750671386719	34.40405654907227	526.2379760742189	-838.1750488281252	35.45806884765626	428.5671386718751	-786.4239501953127	67.96801757812501	449.512664794922	-812.5465087890627	95.46114349365236	411.1856994628907	-847.5665283203127	128.7047271728516	256.6032104492188	-806.4739990234377	128.1127166748047	269.6827087402344	-897.3411254882815	84.03244781494142	195.8720397949219	-844.454528808594	276.2747802734376	256.8774108886719	-905.4049072265627	284.8858337402344	270.5872192382813	-863.8897094726565	262.3214111328126	237.3499145507813	-797.7534179687502	
299	1.49	-214.4207763671876	1695.190551757813	-1066.249389648438	-390.6781616210939	1662.245483398438	-1101.218383789063	-373.3575134277344	1664.376708984375	-953.730407714844	-423.0246582031251	1480.799438476563	-1029.265014648438	-440.7955322265626	1172.463256835938	-1006.246948242188	-271.6655883789063	1429.86669921875	-1053.459106445313	-355.7827758789063	1463.6640625	-1195.751098632813	-270.7507324218751	1403.315307617188	-1333.819946289063	-246.9736938476563	1446.675903320313	-1329.326538085938	-210.0086669921876	1416.64697265625	-1365.009765625	-153.6259460449219	1442.219604492188	-1388.485229492188	-115.8688583374024	1384.84130859375	-1346.834228515625	113.5400619506836	1474.6484375	-1410.35888671875	88.05989837646486	1489.902709960938	-1482.081420898438	185.5948181152344	1510.770385742188	-1442.046875	-315.1759033203126	1478.90283203125	-905.6526489257815	-184.1829681396485	1429.10546875	-790.9669189453127	-159.0872955322266	1465.391235351563	-813.760437011719	-115.1046371459961	1433.425903320313	-787.3212890625002	-48.33528518676759	1452.492919921875	-794.0976562500002	-32.65794372558594	1384.618041992188	-837.2246093750002	215.975082397461	1467.61083984375	-851.3247070312502	206.2409973144532	1488.035766601563	-779.8674926757815	293.1576232910157	1495.063720703125	-839.8875122070315	-278.1866455078126	945.0839843750002	-1097.241821289063	-264.0047607421876	977.6655883789065	-871.536560058594	-455.6091613769532	1033.249267578125	-985.455017089844	-462.603973388672	999.6837158203127	-1010.57470703125	-457.7172851562501	1005.211791992188	-952.6724243164065	-325.1052551269532	783.846862792969	-1164.6962890625	-265.5815124511719	724.5496826171876	-1168.568115234375	-221.249496459961	743.5267944335939	-1160.5849609375	-272.7090454101563	663.7463378906251	-1165.738525390625	-234.3137207031251	500.713104248047	-1129.476806640625	-190.5159759521485	501.0940551757814	-1011.790588378906	-224.2635498046876	325.2629089355469	-1021.778442382813	-244.8022003173829	275.1879577636719	-1092.188354492188	-227.2088470458985	272.3335266113282	-1046.5634765625	-259.0621032714844	204.9734649658204	-1011.862915039063	-330.1220092773438	117.7128219604492	-1050.821655273438	-305.3018798828126	137.7592315673828	-965.3394775390627	-191.2887878417969	62.86822509765626	-978.1481933593752	-189.2447052001953	59.31409454345705	-1022.956420898438	-237.2280578613282	44.29530715942384	-1068.613159179688	-258.6349487304688	813.4588623046877	-770.322448730469	-194.0541534423829	797.2817382812502	-779.6660156250002	-172.9630584716797	818.1477661132815	-793.5961914062502	-161.8158264160157	720.6351318359376	-783.8547973632815	-62.63297653198244	614.2274169921876	-810.4141845703127	-59.98825073242189	608.5448608398439	-933.2648925781252	34.17797088623048	525.7801513671876	-838.399353027344	35.41942596435548	428.1036987304689	-786.1187133789065	67.94773864746095	449.2794494628907	-812.5010375976565	95.20999908447267	410.9410400390626	-847.658874511719	128.7790069580078	256.3068237304688	-806.4406738281252	128.2761993408203	269.3054199218751	-897.198913574219	84.26730346679689	195.4940032958985	-844.3599243164065	276.6166687011719	256.9544677734376	-905.594665527344	285.2711181640626	270.4282836914063	-864.3204345703127	262.3881530761719	237.0167694091797	-797.7199707031252	
